<mxfile host="app.diagrams.net" modified="2023-10-23T22:18:41.890Z" agent="Mozilla/5.0 (Windows NT 10.0; Win64; x64) AppleWebKit/537.36 (KHTML, like Gecko) Chrome/118.0.0.0 Safari/537.36" version="22.0.6" etag="OSz9lPogUdPDt-17rk6T" type="github">
  <diagram name="Page-1" id="zdzdWPkkI8D1NM7KbNMj">
    <mxGraphModel>
      <root>
        <mxCell id="0" />
        <mxCell id="1" parent="0" />
      </root>
    </mxGraphModel>
  </diagram>
</mxfile>
